# xmcd CD database file
#
# Track frame offsets:
#	150
#	17890
#	35737
#	61337
#	81665
#	99692
#	115390
#	133600
#	153105
#
# Disc length: 2303 seconds
#
# Revision: 2
# Processed by: cddbd v1.4PL0 Copyright (c) Steve Scherf et al.
# Submitted via: CDex 1.40Beta9
#
DISCID=7908fd09
DTITLE=Albert King - I'm In A Phone Booth Baby
DYEAR=1984
DGENRE=Blues
TTITLE0=Phone Booth
TTITLE1=Dust My Broom
TTITLE2=The Sky Is Crying
TTITLE3=Brother, Go Ahead And Take Her
TTITLE4=Your Bread Ain't Done
TTITLE5=Firing Line
TTITLE6=The Game Goes On
TTITLE7=Truck Load Of Lovin'
TTITLE8=You Gotta Sacrifice
EXTD=YEAR: 1984 ID3G: 0
EXTT0=
EXTT1=
EXTT2=
EXTT3=
EXTT4=
EXTT5=
EXTT6=
EXTT7=
EXTT8=
PLAYORDER=
